<?xml version="1.0" encoding="utf-8"?>
<!-- Generator: Adobe Illustrator 16.0.0, SVG Export Plug-In . SVG Version: 6.00 Build 0)  -->
<!DOCTYPE svg PUBLIC "-//W3C//DTD SVG 1.1//EN" "http://www.w3.org/Graphics/SVG/1.1/DTD/svg11.dtd">
<svg version="1.1" id="Layer_1" xmlns="http://www.w3.org/2000/svg" xmlns:xlink="http://www.w3.org/1999/xlink" x="0px"
	y="0px" width="212.795px" height="220.59px" viewBox="0 0 212.795 220.59" enable-background="new 0 0 212.795 220.59"
	xml:space="preserve">
	<path fill="#fff" d="M189.209,175.581h-27.186c-1.104,0-2-0.896-2-2v-29.808H55.505v29.808c0,1.104-0.895,2-2,2H26.094
	c-5.101,0-9.25-4.148-9.25-9.249v-67.82c0-5.101,4.149-9.25,9.25-9.25h163.116c5.101,0,9.25,4.149,9.25,9.25v67.82
	C198.459,171.432,194.311,175.581,189.209,175.581 M164.023,171.581h25.186c2.895,0,5.25-2.354,5.25-5.249v-67.82
	c0-2.895-2.355-5.25-5.25-5.25H26.094c-2.895,0-5.25,2.355-5.25,5.25v67.82c0,2.896,2.355,5.249,5.25,5.249h25.412v-29.808
	c0-1.104,0.896-2,2-2h108.518c1.104,0,2,0.896,2,2V171.581z" />
	<path fill="#fff" d="M53.279,93.261H34.702c-1.104,0-2-0.896-2-2V73.427c0-3.602,2.93-6.531,6.531-6.531h14.046
	c1.105,0,2,0.896,2,2v22.365C55.279,92.366,54.384,93.261,53.279,93.261 M36.702,89.261h14.577V70.896H39.233
	c-1.396,0-2.531,1.137-2.531,2.531V89.261z" />
	<path fill="#fff" d="M180.601,93.261h-18.577c-1.104,0-2-0.896-2-2V68.896c0-1.104,0.896-2,2-2h14.046
	c3.601,0,6.531,2.93,6.531,6.531v17.834C182.601,92.366,181.706,93.261,180.601,93.261 M164.023,89.261h14.577V73.427
	c0-1.395-1.135-2.531-2.531-2.531h-12.046V89.261z" />
	<path fill="#fff" d="M162.023,93.261H53.279c-1.104,0-2-0.896-2-2V8.951c0-1.104,0.896-2,2-2h88.581
	c0.579,0,1.129,0.251,1.509,0.688l20.163,23.172c0.317,0.363,0.491,0.83,0.491,1.313v59.139
	C164.023,92.366,163.128,93.261,162.023,93.261 M55.279,89.261h104.744V32.871l-19.074-21.92h-85.67V89.261z" />
	<path fill="#fff" d="M171.085,143.773H44.217c-1.105,0-2-0.896-2-2c0-1.104,0.895-2,2-2h126.868c1.104,0,2,0.896,2,2
	C173.085,142.877,172.189,143.773,171.085,143.773" />
	<path fill="#fff" d="M162.023,214.757H53.506c-1.105,0-2-0.896-2-2v-70.984c0-1.104,0.895-2,2-2h108.517c1.105,0,2,0.896,2,2
	v70.984C164.023,213.861,163.128,214.757,162.023,214.757 M55.506,210.757h104.518v-66.983H55.506V210.757z" />
	<path fill="#fff" d="M143.673,175.581H71.63c-1.104,0-2-0.896-2-2c0-1.104,0.896-2,2-2h72.043c1.104,0,2,0.896,2,2
	C145.673,174.685,144.777,175.581,143.673,175.581" />
	<path fill="#fff" d="M143.673,157.457H71.63c-1.104,0-2-0.896-2-2c0-1.104,0.896-2,2-2h72.043c1.104,0,2,0.896,2,2
	C145.673,156.561,144.777,157.457,143.673,157.457" />
	<path fill="#fff" d="M143.673,193.705H71.63c-1.104,0-2-0.896-2-2c0-1.104,0.896-2,2-2h72.043c1.104,0,2,0.896,2,2
	C145.673,192.809,144.777,193.705,143.673,193.705" />
	<path fill="#fff" d="M47.955,115.681h-7.929c-4.038,0-7.324-3.285-7.324-7.324s3.286-7.324,7.324-7.324h7.929
	c4.039,0,7.324,3.285,7.324,7.324S51.994,115.681,47.955,115.681 M40.026,105.033c-1.833,0-3.324,1.491-3.324,3.324
	s1.491,3.324,3.324,3.324h7.929c1.833,0,3.324-1.491,3.324-3.324s-1.491-3.324-3.324-3.324H40.026z" />
	<path fill="#fff" d="M68.571,115.681c-4.038,0-7.324-3.285-7.324-7.324s3.286-7.324,7.324-7.324c4.039,0,7.324,3.285,7.324,7.324
	S72.61,115.681,68.571,115.681 M68.571,105.033c-1.833,0-3.324,1.491-3.324,3.324s1.491,3.324,3.324,3.324s3.324-1.491,3.324-3.324
	S70.404,105.033,68.571,105.033" />
</svg>